<?xml version="1.0" standalone="no"?>
<!DOCTYPE svg PUBLIC "-//W3C//DTD SVG 20010904//EN"
 "http://www.w3.org/TR/2001/REC-SVG-20010904/DTD/svg10.dtd">
<svg version="1.0" xmlns="http://www.w3.org/2000/svg"
 width="568.000000pt" height="568.000000pt" viewBox="0 0 568.000000 568.000000"
 preserveAspectRatio="xMidYMid meet">
<metadata>
Created by potrace 1.11, written by Peter Selinger 2001-2013
</metadata>
<g transform="translate(0.000000,568.000000) scale(0.100000,-0.100000)"
fill="#000000" stroke="none">
<path d="M2635 5643 c-374 -45 -636 -123 -968 -289 -167 -83 -280 -150 -297
-177 -7 -12 -15 -50 -16 -84 l-4 -62 131 -196 c124 -187 209 -322 258 -410
l23 -40 -32 35 c-25 27 -205 249 -277 340 -137 175 -203 243 -253 262 -43 16
-83 0 -165 -68 -162 -134 -357 -346 -477 -519 -269 -388 -423 -810 -476 -1305
-15 -143 -7 -607 13 -705 2 -11 7 -40 10 -66 6 -55 38 -204 66 -307 153 -568
484 -1079 930 -1434 112 -89 277 -200 393 -263 167 -91 481 -214 553 -217 39
-1 78 23 97 61 9 16 22 31 30 34 19 7 49 91 92 256 20 75 38 138 41 141 2 3 2
-20 -1 -50 -11 -106 -16 -186 -15 -270 1 -47 0 -104 0 -128 -2 -70 39 -126
100 -137 86 -15 296 -29 439 -29 86 1 291 12 326 18 11 2 42 7 69 10 366 51
731 184 1053 382 258 160 506 379 702 619 262 322 459 727 555 1145 33 144 36
165 60 380 4 30 8 177 10 325 5 364 -11 457 -83 487 -28 12 -274 15 -347 5
l-40 -6 40 19 c22 11 47 20 56 20 8 0 19 4 25 9 5 5 32 16 59 25 66 21 115 52
115 71 0 9 10 29 22 45 33 45 30 88 -17 218 -111 310 -243 551 -450 817 -100
129 -353 379 -480 475 -55 41 -101 78 -103 83 -2 4 -8 7 -14 7 -6 0 -25 10
-42 23 -49 37 -193 121 -293 171 -278 139 -560 222 -913 271 -51 7 -459 14
-505 8z m550 -253 c72 -10 141 -22 155 -25 14 -3 34 -7 45 -9 107 -21 328 -94
459 -152 522 -232 959 -642 1229 -1154 65 -122 105 -214 157 -360 21 -58 41
-112 44 -121 5 -12 -8 -21 -63 -39 -39 -14 -71 -22 -73 -20 -2 3 -21 58 -42
123 -78 235 -250 541 -422 750 -403 486 -803 733 -1334 821 -233 39 -583 42
-780 6 -30 -5 -67 -11 -83 -14 -15 -3 -35 -7 -45 -10 -9 -3 -28 -7 -42 -10
-163 -28 -439 -131 -684 -257 -65 -34 -121 -57 -125 -52 -57 84 -76 109 -83
111 -12 5 -10 22 2 22 6 0 43 20 83 44 229 139 579 281 790 321 12 3 45 9 72
15 68 14 104 18 210 26 50 4 91 8 93 9 11 9 333 -9 437 -25z m-48 -294 c38 -4
82 -9 98 -11 307 -47 518 -117 730 -243 267 -159 606 -506 795 -817 118 -194
270 -559 237 -570 -7 -3 -52 -19 -102 -36 -49 -17 -100 -37 -112 -45 -32 -20
-42 -18 -49 14 -22 99 -151 399 -230 532 -238 404 -648 749 -1039 874 -182 58
-275 71 -485 70 -309 -1 -618 -88 -1000 -280 -90 -46 -165 -82 -165 -81 -1 1
-35 57 -78 124 l-76 123 172 84 c263 129 465 198 712 241 35 6 194 24 245 27
59 5 276 0 347 -6z m-1895 -426 c-458 -369 -761 -890 -836 -1435 -64 -465 77
-1010 396 -1535 288 -476 642 -822 1053 -1032 97 -50 248 -113 293 -123 l29
-6 -14 -52 c-27 -106 -44 -148 -56 -139 -7 5 -61 26 -122 47 -241 81 -470 203
-683 362 -131 99 -331 291 -428 413 -282 353 -474 795 -539 1240 -3 19 -8 44
-10 55 -25 117 -25 593 0 724 1 9 6 39 9 66 42 309 187 697 362 967 122 189
318 411 499 567 l60 51 42 -46 41 -46 -96 -78z m1896 56 c220 -21 437 -104
657 -251 225 -149 384 -312 542 -551 73 -111 193 -339 193 -366 0 -8 4 -18 9
-23 26 -29 108 -320 135 -480 32 -190 36 -243 37 -420 1 -281 -45 -514 -148
-738 -189 -414 -459 -693 -796 -826 -94 -37 -281 -85 -392 -101 -44 -6 -93
-13 -110 -15 -158 -24 -791 -23 -815 2 -3 2 -6 33 -7 68 -2 83 -14 105 -57
105 -41 0 -47 -8 -76 -87 -13 -35 -28 -63 -34 -63 -27 0 -218 54 -303 86 -332
124 -568 344 -742 688 -62 124 -64 128 -120 277 -41 109 -107 326 -116 383 -3
17 -8 39 -11 48 -7 25 -21 99 -49 273 -4 22 -8 103 -10 180 -4 204 33 390 111
563 13 29 24 56 24 60 0 21 134 239 192 313 87 112 231 249 364 348 107 80
109 80 134 64 14 -9 36 -22 49 -29 23 -12 23 -12 2 -23 -105 -57 -338 -282
-424 -412 -126 -190 -214 -417 -252 -647 -4 -23 -9 -54 -11 -70 -9 -57 -12
-380 -3 -452 76 -662 541 -1237 1169 -1446 47 -15 90 -29 95 -30 6 -1 28 -6
50 -12 99 -27 268 -44 425 -44 526 1 961 120 1258 344 270 205 443 501 496
851 15 99 19 367 6 457 -17 121 -22 148 -40 230 -20 95 -97 340 -111 355 -5 5
-9 15 -9 23 0 25 -135 293 -198 395 -227 363 -501 621 -784 738 -221 91 -472
110 -748 55 -292 -57 -516 -128 -706 -221 l-123 -60 2 30 c0 17 -3 44 -7 61
l-7 31 173 85 c422 210 751 286 1086 254z m-1650 -168 c45 -57 95 -119 112
-138 16 -19 30 -37 30 -40 -1 -3 -42 -35 -93 -72 -115 -84 -238 -198 -335
-308 -195 -223 -343 -539 -392 -840 -19 -114 -16 -358 5 -483 2 -12 9 -51 15
-87 43 -270 138 -579 252 -818 178 -374 414 -623 732 -772 125 -59 285 -111
412 -135 l32 -6 -28 -110 c-16 -61 -30 -112 -32 -114 -2 -2 -48 13 -103 34
-441 167 -804 478 -1131 968 -52 78 -94 146 -94 151 0 6 -3 12 -8 14 -16 7
-148 267 -194 383 -79 198 -136 407 -161 595 -13 95 -15 329 -3 415 63 473
268 886 611 1230 93 93 262 234 281 235 6 0 47 -46 92 -102z m1713 -124 c346
-65 646 -297 912 -704 360 -552 477 -1204 300 -1675 -160 -426 -534 -694
-1098 -789 -147 -25 -190 -28 -415 -31 -179 -3 -234 0 -329 16 -333 58 -605
203 -861 459 -148 148 -231 262 -310 425 -134 276 -180 532 -155 865 7 92 47
293 75 380 95 289 291 548 545 717 355 237 1001 399 1336 337z m2159 -1151 c1
-15 4 -46 8 -68 9 -55 9 -510 -1 -615 -47 -517 -242 -998 -566 -1400 -90 -112
-254 -280 -336 -345 -27 -22 -52 -42 -55 -45 -57 -60 -312 -222 -472 -299
-228 -110 -518 -201 -728 -227 -19 -3 -46 -7 -58 -9 -135 -24 -598 -24 -727 0
-11 2 -24 4 -28 4 -5 1 -7 40 -5 89 l3 87 35 -1 c19 -1 49 -4 65 -8 157 -36
443 -41 640 -11 386 57 803 230 1108 458 108 81 315 287 408 407 293 377 506
840 565 1230 3 19 8 46 10 60 3 14 7 104 9 200 3 179 -14 340 -50 482 -8 29
-17 27 128 36 45 3 47 2 47 -25z m-287 0 c3 -5 8 -25 11 -45 3 -21 10 -57 15
-80 26 -118 36 -432 18 -563 -76 -554 -433 -1197 -872 -1568 -315 -268 -806
-468 -1235 -504 -197 -16 -374 -4 -562 38 -27 6 -45 15 -43 22 2 7 7 46 10 87
4 41 8 84 10 95 1 11 3 30 4 42 1 21 3 22 79 15 162 -15 708 -7 807 12 11 2
45 7 75 11 30 4 64 9 75 11 11 2 44 8 73 14 169 31 389 116 524 204 213 136
408 355 551 617 82 152 168 383 192 520 3 18 8 35 10 39 2 3 6 33 10 65 3 33
9 86 14 118 9 67 7 345 -3 427 -25 199 -28 221 -52 333 -8 37 -14 72 -14 76 0
4 46 8 102 9 56 1 103 3 104 5 7 6 93 6 97 0z"/>
<path d="M2678 4225 c-2 -2 -34 -6 -73 -10 -169 -15 -375 -76 -515 -152 -246
-132 -440 -343 -575 -625 -112 -234 -159 -509 -131 -762 41 -362 230 -743 494
-991 133 -124 294 -214 467 -261 86 -23 120 -27 245 -28 153 -1 190 5 470 76
63 16 122 31 131 33 109 24 349 111 464 167 264 132 458 349 544 609 29 90 31
100 51 244 8 63 6 299 -4 350 -3 17 -10 62 -16 100 -50 327 -204 653 -408 862
-205 212 -420 317 -772 378 -37 7 -366 15 -372 10z m428 -150 c263 -53 431
-141 604 -315 132 -132 217 -265 294 -458 119 -301 152 -655 85 -915 -69 -271
-252 -480 -541 -617 -170 -80 -332 -132 -633 -201 -195 -45 -267 -51 -414 -36
-151 16 -315 84 -452 187 -213 160 -408 467 -488 770 -19 71 -23 93 -40 218
-24 170 12 424 88 614 110 278 328 526 568 647 112 56 278 103 413 118 30 3
57 7 58 9 2 1 81 2 175 2 138 0 194 -5 283 -23z"/>
<path d="M2617 3934 c-444 -81 -789 -414 -889 -856 -29 -130 -31 -366 -3 -499
33 -162 142 -408 237 -534 110 -146 249 -263 390 -328 114 -53 292 -74 413
-50 73 15 284 82 345 109 222 101 363 191 487 307 275 261 411 624 370 992
-35 322 -251 603 -579 754 -75 35 -196 76 -253 87 -11 2 -53 10 -93 18 -96 18
-326 19 -425 0z m398 -129 c365 -59 643 -249 769 -527 66 -145 83 -279 59
-463 -35 -274 -164 -505 -383 -687 -131 -109 -329 -213 -550 -289 -122 -42
-128 -43 -255 -43 -116 0 -137 2 -197 26 -108 41 -176 87 -274 183 -161 159
-251 323 -320 585 -18 68 -27 353 -12 415 4 17 10 43 13 58 12 60 56 178 89
238 205 378 621 576 1061 504z"/>
<path d="M2650 3604 c-346 -45 -529 -220 -577 -554 -4 -30 -8 -125 -7 -210 1
-138 4 -165 28 -245 107 -359 379 -585 672 -561 86 8 252 53 390 107 330 129
457 333 448 722 -6 254 -66 429 -192 556 -106 107 -217 159 -397 187 -72 11
-268 10 -365 -2z m359 -133 c239 -37 379 -163 437 -392 25 -99 28 -356 5 -445
-27 -104 -55 -158 -113 -220 -85 -90 -217 -154 -441 -214 -142 -38 -193 -41
-273 -20 -83 22 -147 62 -219 134 -148 149 -218 340 -210 576 10 334 120 502
372 565 121 31 305 37 442 16z"/>
<path d="M2728 3329 c-130 -14 -240 -65 -311 -143 -99 -111 -134 -365 -74
-536 51 -143 150 -256 272 -312 68 -30 194 -34 285 -8 276 78 386 166 434 348
16 62 18 222 4 283 -5 24 -11 53 -14 64 -9 43 -65 142 -105 183 -46 46 -137
94 -214 111 -65 14 -192 18 -277 10z m207 -134 c146 -16 234 -90 271 -227 16
-58 21 -195 9 -249 -19 -87 -78 -159 -163 -199 -84 -40 -260 -83 -316 -77
-117 11 -211 99 -262 246 -20 56 -23 81 -20 166 4 105 8 131 28 180 42 104
145 160 303 164 38 1 71 4 73 6 3 3 8 3 11 1 3 -2 33 -7 66 -11z"/>
</g>
</svg>
